<svg xmlns="http://www.w3.org/2000/svg" width="30" height="30" viewBox="0 0 70 70" style="width: 100%; height: 100%;"><desc>Made with illustrio</desc>
  
<g class="base"><g fill="none" fill-rule="evenodd" stroke="none" class="main-fill">
    
    <path fill="none" d="M32.4220909,16.2272727 L30.4538182,12.8189091 L30.4538182,8.883 C30.4538182,8.65581818 30.3329091,8.44518182 30.1356364,8.33190909 L26.7279091,6.36363636 L24.7596364,2.95527273 C24.6457273,2.758 24.4357273,2.63709091 24.2085455,2.63709091 L20.272,2.63709091 L16.8636364,0.668818182 C16.6663636,0.554909091 16.4245455,0.554909091 16.2272727,0.668818182 L12.8189091,2.63709091 L8.883,2.63709091 C8.65581818,2.63709091 8.44518182,2.758 8.33190909,2.95527273 L6.36363636,6.36363636 L2.95527273,8.33127273 C2.758,8.44518182 2.63709091,8.65518182 2.63709091,8.88236364 L2.63709091,12.8182727 L0.668818182,16.2272727 C0.555545455,16.4245455 0.555545455,16.6663636 0.668818182,16.8636364 L2.63709091,20.272 L2.63709091,24.2085455 C2.63709091,24.4357273 2.758,24.6463636 2.95527273,24.7596364 L6.36363636,26.7279091 L8.33127273,30.1356364 C8.44518182,30.3329091 8.65518182,30.4538182 8.88236364,30.4538182 L12.8182727,30.4538182 L16.2266364,32.4220909 C16.3252727,32.4787273 16.4347273,32.5073636 16.5448182,32.5073636 C16.6549091,32.5073636 16.7643636,32.4787273 16.863,32.4220909 L20.2713636,30.4538182 L24.2079091,30.4538182 C24.4350909,30.4538182 24.6457273,30.3329091 24.759,30.1356364 L26.7272727,26.7279091 L30.135,24.7596364 C30.3322727,24.6457273 30.4531818,24.4357273 30.4531818,24.2085455 L30.4531818,20.272 L32.4214545,16.8636364 C32.536,16.6663636 32.536,16.4245455 32.4220909,16.2272727 L32.4220909,16.2272727 Z M21.5911818,10.4185455 L16.5002727,23.1458182 C16.429,23.324 16.2813636,23.4601818 16.0980909,23.5174545 C16.0363636,23.5359091 15.9727273,23.5454545 15.9090909,23.5454545 C15.785,23.5454545 15.6615455,23.5085455 15.5559091,23.4385455 L11.7377273,20.8930909 C11.4456364,20.6977273 11.3667273,20.3031818 11.5614545,20.0104545 C11.7561818,19.7177273 12.1507273,19.6388182 12.4440909,19.8341818 L15.61,21.9443636 L20.4094545,9.94509091 C20.5399091,9.61863636 20.9128182,9.46145455 21.2367273,9.59063636 C21.5625455,9.72172727 21.7216364,10.0914545 21.5911818,10.4185455 L21.5911818,10.4185455 Z" transform="translate(18.455 18.455)" stroke="none" class="main-fill"></path>
  </g></g><style>
          .main-fill {fill: #44B2C3;}
          .main-stroke {stroke: #44B2C3;}
          .secondary-fill {fill: ;}
          .secondary-stroke {stroke: ;}

          .main-fill--darken {fill: #2d808d;}
          .main-stroke--darken {stroke: #2d808d;}
          .secondary-fill--darken {fill: #000000;}
          .secondary-stroke--darken {stroke: #000000;}

          .main-fill--darkener {fill: #215d67;}
          .main-stroke--darkener {stroke: #215d67;}
          .secondary-fill--darkener {fill: #000000;}
          .secondary-stroke--darkener {stroke: #000000;}
        </style></svg>